<mxfile host="app.diagrams.net" modified="2022-11-02T13:06:39.005Z" agent="5.0 (Windows NT 10.0; Win64; x64) AppleWebKit/537.36 (KHTML, like Gecko) Chrome/107.0.0.0 Safari/537.36 Edg/107.0.1418.26" etag="LyED9WyENFXEh_AP2KgI" version="20.5.1" type="github">
  <diagram id="Xg83POF5Kqj6wJ5Ub8dr" name="第 1 页">
    <mxGraphModel dx="1038" dy="617" grid="1" gridSize="10" guides="1" tooltips="1" connect="1" arrows="1" fold="1" page="1" pageScale="1" pageWidth="827" pageHeight="1169" math="0" shadow="0">
      <root>
        <mxCell id="0" />
        <mxCell id="1" parent="0" />
        <mxCell id="dDM4Y01Dr2_2Ew_SNh4O-2" value="IQ" style="rounded=1;whiteSpace=wrap;html=1;arcSize=23;" vertex="1" parent="1">
          <mxGeometry x="130" y="130" width="120" height="60" as="geometry" />
        </mxCell>
        <mxCell id="dDM4Y01Dr2_2Ew_SNh4O-3" value="ROB" style="rounded=1;whiteSpace=wrap;html=1;" vertex="1" parent="1">
          <mxGeometry x="130" y="430" width="120" height="60" as="geometry" />
        </mxCell>
        <mxCell id="dDM4Y01Dr2_2Ew_SNh4O-4" value="RS" style="rounded=1;whiteSpace=wrap;html=1;" vertex="1" parent="1">
          <mxGeometry x="130" y="290" width="120" height="60" as="geometry" />
        </mxCell>
        <mxCell id="dDM4Y01Dr2_2Ew_SNh4O-5" value="LSB" style="rounded=1;whiteSpace=wrap;html=1;" vertex="1" parent="1">
          <mxGeometry x="340" y="290" width="120" height="60" as="geometry" />
        </mxCell>
        <mxCell id="dDM4Y01Dr2_2Ew_SNh4O-6" value="" style="swimlane;childLayout=stackLayout;horizontal=1;startSize=30;horizontalStack=0;rounded=1;fontSize=14;fontStyle=0;strokeWidth=2;resizeParent=0;resizeLast=1;shadow=0;dashed=0;align=center;" vertex="1" parent="1">
          <mxGeometry x="590" y="20" width="160" height="120" as="geometry" />
        </mxCell>
        <mxCell id="dDM4Y01Dr2_2Ew_SNh4O-7" value="+Attribute1&#xa;+Attribute2&#xa;+Attribute3" style="align=left;strokeColor=none;fillColor=none;spacingLeft=4;fontSize=12;verticalAlign=top;resizable=0;rotatable=0;part=1;" vertex="1" parent="dDM4Y01Dr2_2Ew_SNh4O-6">
          <mxGeometry y="30" width="160" height="90" as="geometry" />
        </mxCell>
      </root>
    </mxGraphModel>
  </diagram>
</mxfile>
